<svg xmlns="http://www.w3.org/2000/svg" viewBox="0 0 576.08 423.25"><defs><style>.cls-1{fill:#57595b;}</style></defs><title>Logo_in_app</title><g id="Layer_2" data-name="Layer 2"><g id="home_page" data-name="home page"><path class="cls-1" d="M450.73,184.18c0,20.64.1,41.28,0,61.92-.11,18-7.84,32.16-23,41.75Q375.1,321,322.25,353.7c-16.33,10.09-33.35,10.41-50.13,1.08Q212,321.32,152,287.49c-13.83-7.78-22-19.68-24.64-35.31a52.13,52.13,0,0,1-.6-8.6q-.06-60.24,0-120.48c0-18.46,7.83-32.81,23.37-42.85Q205.94,44.18,261.79,8.16A48.68,48.68,0,0,1,315.45,8q42.62,27.54,85.26,55c9.14,5.9,18.29,11.77,27.41,17.7A47.83,47.83,0,0,1,449.89,113a49.42,49.42,0,0,1,.8,9.06C450.76,142.75,450.73,163.47,450.73,184.18ZM418,206.81a2.4,2.4,0,0,1,.22-.61c.47-.54,1-1.05,1.45-1.59,8.61-9.81,14.31-20.94,15.41-34.13a29.39,29.39,0,0,0-1.52-13c-2.6-6.87-8.6-10.2-15.84-8.88a29.14,29.14,0,0,0-10.34,4.3c-8.38,5.29-16.74,10.63-25.17,15.84a3.34,3.34,0,0,0-1.73,3.5c.55,12.3,1,24.6,1.5,36.9q1,26.48,2.06,53a13.26,13.26,0,0,0,.32,1.72c4.15-2.62,8-5.16,12-7.52a3.63,3.63,0,0,0,2.08-3.79c-.47-9.34-.62-18.7-1.2-28-.17-2.82.47-4.59,3.1-5.55a5.67,5.67,0,0,1,.71-.13L423.63,239l18.82-11.9Zm-50.12,67.45,15.6-9.86c-13.82-27.55-27.41-55-41.17-82.35l-.48.11L309,311.19a12.52,12.52,0,0,0,1.26-.56c4.4-2.77,8.77-5.57,13.2-8.29a3.58,3.58,0,0,0,1.54-2.55c2-8.23,4.08-16.44,6-24.67a4.39,4.39,0,0,1,2.14-2.95c8.06-5,16.09-10.15,24.14-15.22.52-.33,1.07-.6,1.78-1ZM288,178.64,159.13,96.84l-3.18,5.06c1.17.76,2.21,1.46,3.27,2.14Q221.1,143.3,283,182.52a4,4,0,0,1,2.19,3.78c.33,20.47.79,40.93,1.19,61.4q.59,29.86,1.14,59.72c0,.84.08,1.68.12,2.41h5.83c0-.9.12-1.61.1-2.31q-.56-27.22-1.13-54.44-.64-32.86-1.2-65.72c-.08-4.39-.54-3.23,2.88-5.51q62.56-41.74,125.14-83.45c.77-.52,1.53-1.07,2.4-1.67l-3.34-4.93ZM204,71.7l103.72,59.88L368.11,96.7,264.4,36.83Zm131.87,2.38c3.32-2,6.62-3.88,9.9-5.86a5.87,5.87,0,0,0,1.39-1.31,4.44,4.44,0,0,0,.07-6.12,10.52,10.52,0,0,0-2.74-2.27c-18.95-11-37.86-22-56.91-32.82a17.76,17.76,0,0,0-18.35.13q-38.9,22.3-77.68,44.81a14.49,14.49,0,0,0-1.36,1c2,2.24,3.86,1.86,6.2.5Q231,52,265.72,32c.75-.43,1.52-.83,2.27-1.24l67.55,39-3.1,2.28Zm-74.48,43c-1.18-.7-1.86-1.12-2.55-1.52L223.13,94.93Q205.58,84.8,188,74.64a2.92,2.92,0,0,0-3.48,0c-2.22,1.42-4.57,2.64-6.83,4a12,12,0,0,0-2.48,1.86,4.6,4.6,0,0,0,0,6.85,14,14,0,0,0,3.07,2.27q27.81,16.1,55.65,32.16A19.39,19.39,0,0,0,247.15,124C252.47,123.15,256.42,119.59,261.4,117.08Zm-35.08,103.1c2.34,1.43,4.47,2.86,6.7,4.07,2.69,1.47,5.07.47,6.06-2.44a7.7,7.7,0,0,0,.45-2.33,81.12,81.12,0,0,0-.06-9.33c-.58-5.61-2.82-10.55-7.51-13.89a87.75,87.75,0,0,0-9.92-5.79c-2.8-1.49-5-.44-5.9,2.61a10.14,10.14,0,0,0-.42,2.83,92.56,92.56,0,0,0,.24,9.32,19.93,19.93,0,0,0,5.41,11.51,6.78,6.78,0,0,0,3.47,2.35c.15-.92.33-1.68.37-2.44.15-2.55.24-5.1.37-7.65,0-.58-.21-1.35,1.11-1.46C227.27,211.71,226.76,215.85,226.33,220.18Zm-54.85-32a52.44,52.44,0,0,1,.05-6.06c.24-2,.44-4.06,1.78-5.74,1.2.64.65,1.42.46,2.16-.85,3.18-1.54,6.38-.63,9.67.19.67.4,1.57.9,1.87a55.69,55.69,0,0,0,6.54,3.47,3,3,0,0,0,4-1.55,11.58,11.58,0,0,0,1-4.11,55.3,55.3,0,0,0,0-7.66c-.52-6.9-3.2-12.62-9.43-16.25-1.73-1-3.45-2-5.18-3a32.43,32.43,0,0,0-3.37-1.82c-2.38-1-4.29-.2-5.19,2.22a11.58,11.58,0,0,0-.69,3.5,67.54,67.54,0,0,0,0,7.42,20.94,20.94,0,0,0,6.38,14.05A5.21,5.21,0,0,0,171.48,188.14ZM161,240.28c-.23-.82-.48-1.48-.61-2.16-.8-4.48-1.6-9-2.31-13.46a2.28,2.28,0,0,0-1.35-2c-1-.45-2-1.1-3-1.48a3.2,3.2,0,0,0-4.4,1.74,11.13,11.13,0,0,0-1,3.91,59.47,59.47,0,0,0,0,7.91c.43,5.54,2.37,10.62,6.8,14.07a75.35,75.35,0,0,0,11.32,6.71c2.19,1.16,4.15.23,5-2.07a11.29,11.29,0,0,0,.68-3.49c.11-2.23,0-4.48,0-6.72a21,21,0,0,0-5.1-13.63c-1.91-2.32-4.48-3.69-7.45-5,.07,1,.06,1.73.18,2.42.65,3.7,1.35,7.38,2,11.08C162,238.8,162.51,239.66,161,240.28Zm70.27,28c.39.68.72,1.39,1.16,2,2.32,3.35,4.66,6.69,7,10a6.1,6.1,0,0,1,.95,1.37c.12.35-.15.83-.25,1.25l-.55.08-4.75-6.53c-1.56-2.15-2.91-4.46-4.83-6.91a11.4,11.4,0,0,0-.62,2.32c0,3.91-.38,7.88.18,11.71a17.79,17.79,0,0,0,7.68,12.78c2.92,1.94,6,3.62,9.11,5.3s5.63.63,6.47-2.93a6.28,6.28,0,0,0,.18-1.42,95,95,0,0,0-.1-9.82c-.55-5.26-2.67-10-7-13.2A93.93,93.93,0,0,0,235.22,268,3.16,3.16,0,0,0,231.29,268.32ZM192.71,199c.6-.88,1.07-1.6,1.59-2.29a16.09,16.09,0,0,1,1.67-2c2-1.91,4.58-1.81,6.23.4a13.94,13.94,0,0,1,2,4c.87,2.73,1.5,5.54,2.25,8.31.49,1.83,1.94,2.52,3.58,1.55A4.4,4.4,0,0,0,211.8,207a9.94,9.94,0,0,0,.8-3.45,71.69,71.69,0,0,0,0-8.38c-.44-5.64-2.55-10.68-7.11-14.13a76,76,0,0,0-10.72-6.31c-2.47-1.3-4.54-.27-5.45,2.4a9.47,9.47,0,0,0-.55,2.81c-.06,2.79-.16,5.6,0,8.38A20,20,0,0,0,192.71,199Zm9.82,67c-.14,5.69,3.56,12.46,8.2,15.25,2.74,1.65,5.52,3.21,8.3,4.8a9.69,9.69,0,0,0,1.52.71c2.15.77,3.85.17,4.74-1.92a11.29,11.29,0,0,0,.8-3.7c.13-2.15,0-4.31.05-6.47A21.28,21.28,0,0,0,222,261.85c-2.08-3-5.09-4.68-8.55-6.31,0,1.05,0,1.82,0,2.58,0,1.44.19,2.88.09,4.31a4.29,4.29,0,0,1-4.23,4.34,17.54,17.54,0,0,1-3.58-.09A28.79,28.79,0,0,1,202.53,265.94Zm-27.41-19.71h.12c0,1.12-.06,2.24,0,3.36.38,5.91,2.34,11.25,7.08,14.93,3.32,2.57,7.21,4.41,10.9,6.49a3.37,3.37,0,0,0,3.46.09c1.77-1,2.17-2.84,2.46-4.7a3.29,3.29,0,0,0-1.7-3.55,23.29,23.29,0,0,1-9.71-14.08,27.15,27.15,0,0,1-1.21-5.61c0-3.13-1.78-4.63-4.31-5.86-3.56-1.73-5.91-.74-6.65,3.19A51.41,51.41,0,0,0,175.12,246.22Zm-2.75-37.77c-.2-1.64-.24-2.83-.5-4-1.31-5.95-4.14-10.82-9.76-13.74-2.12-1.1-4.15-2.39-6.23-3.56a12.77,12.77,0,0,0-2.15-1,3.24,3.24,0,0,0-4.39,1.76,11.14,11.14,0,0,0-1,3.9,61.34,61.34,0,0,0,0,7.89,20.79,20.79,0,0,0,6.18,13.64,24.15,24.15,0,0,0,2.85,2.07c.26-1.7.42-3,.64-4.2,1-5.92,4.73-7.79,10-5,.78.4,1.52.88,2.29,1.3C170.82,207.73,171.32,207.94,172.37,208.45Zm69.85,55.7c.57-2.73,0-5.16-.49-7.56-.94-4.78-2.26-9.51-1.65-14.45.23-1.89.64-3.75,1-5.75-1.68-1-3.3-2-5-2.9-3.55-1.93-6-.67-6.72,3.35a6.89,6.89,0,0,0-.14,1.19c0,3.28-.26,6.59.18,9.82C230.47,255.55,234.55,261.1,242.22,264.15Zm.43-26.69a21.05,21.05,0,0,0-1.15,10.14c.77,5.59,2.74,11,2.33,16.78a1.77,1.77,0,0,0,.74,1.35A16.56,16.56,0,0,0,248,267.4a3,3,0,0,0,4-1.64,12,12,0,0,0,1-4.11c.17-2.3.07-4.63,0-6.94a21,21,0,0,0-5-13.39A12.51,12.51,0,0,0,242.66,237.46Zm-19.29-8.18a25.82,25.82,0,0,1-4.25,3.15,26,26,0,0,1-5.2,1.24,141,141,0,0,0,7.9,18.26,2.6,2.6,0,0,0,2.92-1.27,9.74,9.74,0,0,0,1.27-3.77,84.11,84.11,0,0,0,0-9.56A16.54,16.54,0,0,0,223.37,229.27Zm-21.26-.62c.42,7.47,2.61,13.42,8.51,17.46,2.37,1.62,5,2.91,7.46,4.34a14.52,14.52,0,0,0,1.41.58c-.45-1.1-.72-1.81-1-2.52-1.55-3.6-3.39-7.1-4.56-10.81-1.08-3.4-2.71-5.7-6.33-6.57C205.85,230.72,204.28,229.67,202.1,228.65Zm-12.39-22c-2.83-1.61-5.47-3.25-8.22-4.65s-4.92-.34-5.71,2.59a35.92,35.92,0,0,0-.55,4.48,2.16,2.16,0,0,0,1.25,2.32c2.1,1.29,4.14,2.68,6.23,4,1.2.75,2.43,1.44,3.67,2.16a3.45,3.45,0,0,0,.51-.74C187.82,213.56,188.72,210.27,189.72,206.69Zm-17.28,7.2c.57-2.85-1-4.34-3.27-5.41-1.16-.54-2.24-1.25-3.41-1.72-2.5-1-4.35-.25-5.48,2.2a13.8,13.8,0,0,0-1.11,6.55,1.9,1.9,0,0,0,.76,1.34,70.51,70.51,0,0,0,6.46,3.63c2.41,1.13,4.45.18,5.29-2.38A30.41,30.41,0,0,0,172.43,213.89Zm15.39,6.65a45.84,45.84,0,0,0-1,10.56,1.94,1.94,0,0,0,1.08,1.95c1.76.93,3.42,2.05,5.21,2.91,2.64,1.26,4.75.37,5.57-2.45a31.84,31.84,0,0,0,.55-4.7,2.52,2.52,0,0,0-1.57-2.85c-2.6-1.38-5.1-2.93-7.66-4.39C189.36,221.22,188.72,221,187.83,220.54Zm14.25,39.81c.11,4.08.17,4.15,4.15,4.93a8.61,8.61,0,0,0,1.9.19c2.75-.08,4.14-1.44,4.08-4.21,0-2.07-.29-4.13-.52-6.19a1.88,1.88,0,0,0-.73-1.12,14.17,14.17,0,0,0-2.06-1.2c-3.24-1.64-5.63-.51-6.34,3.08C202.24,257.32,202.22,258.85,202.08,260.35ZM188,241c.12,8.69,4.56,17.75,10.87,20.58C200.63,254,195.25,243,188,241Zm-2.95-10c.4-3.68.85-7.23,1.12-10.79,0-.51-.59-1.26-1.11-1.61-2.79-1.84-5.64-3.6-8.48-5.36a6.54,6.54,0,0,0-1.05-.43C174.19,218.87,179.58,229.69,185.06,231.07Zm13.78-6.26c1.18-5.67-3-14.77-7.93-17-.85,3.26-1.68,6.48-2.55,9.69-.3,1.12.34,1.58,1.15,2,2.48,1.43,4.94,2.9,7.42,4.33C197.53,224.23,198.18,224.49,198.84,224.81Zm11-6.53-.45.32a4.92,4.92,0,0,0,.1.89c1.06,3.58,2.14,7.16,3.19,10.75a2.17,2.17,0,0,0,2.33,1.63c3.4.06,5.65-1.69,7.25-4.55C219.22,222.6,214,221.13,209.83,218.28Zm-15.94-17.65c3,3.25,7,4.77,11.14,7.27-.89-4.23-1.63-7.84-3.41-11.15a4.64,4.64,0,0,0-.71-.95c-1.24-1.32-2.36-1.42-3.73-.21A12.89,12.89,0,0,0,193.88,200.63Zm16.76,30.18.4-.41-3.86-13.27a3.4,3.4,0,0,0-4.1,2.14,10.16,10.16,0,0,0-.74,2.76c-.68,4.57-.57,4.78,3.59,6.76C207.48,229.51,209.08,230.13,210.65,230.8Zm50.76-117.94c3.78,2.5,3.19,2.54,6.88,0l-3.46-2Z"/><path class="cls-1" d="M0,405.59H576a7.73,7.73,0,0,1-1.35,5.22,18.91,18.91,0,0,1-6.56,6.21,42.75,42.75,0,0,1-18.36,5.8,94.56,94.56,0,0,1-9.58.42q-253,0-506.07,0A56,56,0,0,1,14.32,420a28.58,28.58,0,0,1-10.58-6.42A11.23,11.23,0,0,1,0,405.59Z"/><path class="cls-1" d="M406,308.6c1.55-1,3.06-2,4.66-2.87a4.47,4.47,0,0,1,2.07-.38c13.84,0,27.68-.08,41.52,0a51.15,51.15,0,0,1,16.24,2.8,34,34,0,0,1,12.29,7.26Q527,356.3,571.32,397.07a20.21,20.21,0,0,0,1.88,1.41,4.63,4.63,0,0,1-.24.76.32.32,0,0,1-.2.1c-.4,0-.79.08-1.19.08H3.07a6.74,6.74,0,0,1,2.27-2.8q13-12.64,26-25.24Q60,343.55,88.64,315.69c4.95-4.83,10.94-7.38,17.49-8.92A55.83,55.83,0,0,1,119,305.33c16.16,0,32.32.06,48.48-.05a12.38,12.38,0,0,1,7.66,2.08,6.5,6.5,0,0,1,2,1.77h-2.54q-33.48,0-67,0a5.53,5.53,0,0,0-4.37,1.85Q65.54,349.75,27.76,388.5c-.59.61-1.14,1.26-2,2.17H546.58c-.51-.61-.81-1-1.18-1.4l-59.84-60.62c-5.84-5.92-11.71-11.81-17.5-17.79a5.25,5.25,0,0,0-4.17-1.76c-18.4.06-36.8,0-55.2,0h-2.59Z"/><path class="cls-1" d="M396.54,204.18c-.14-2.61-.29-4.83-.38-7-.24-5.91-.4-11.83-.71-17.73a3,3,0,0,1,1.64-3.07c4-2.41,7.83-5,11.79-7.37a19.36,19.36,0,0,1,4.33-2c2.91-.89,5.62.33,6.55,3.23a17.72,17.72,0,0,1,.92,6.81c-.75,8.15-4.24,14.81-11.38,19.26-3.53,2.2-7,4.44-10.55,6.65C398.16,203.29,397.53,203.62,396.54,204.18Z"/><path class="cls-1" d="M352.92,243l-16,10.13-.37-.3,7-28.42.5-.08Z"/><path class="cls-1" d="M360.68,96.67c-.87.54-1.46.94-2.07,1.3-16.27,9.4-32.55,18.77-48.78,28.24a3.7,3.7,0,0,1-4.32-.06Q259.64,99.57,213.72,73.1c-.68-.4-1.35-.82-2.27-1.37.86-.53,1.51-1,2.17-1.35C229.82,61,246,51.69,262.19,42.26a3.9,3.9,0,0,1,4.54.05q45.76,26.51,91.58,52.92C359,95.63,359.66,96.06,360.68,96.67Zm-46,2-6.77-4c1.44-1,1.46-1,2.42-.5,1.47.81,3,1.6,4.35,2.53a2.61,2.61,0,0,0,3.47,0c.46-.37,1-.67,1.74-1.19l-10.64-6.15L295,97.57l8.75,5.08c2.31,1.34,3.26,1.12,5.13-1.18l-6.29-3.75c1-1.27,1.83-.85,2.7-.33,1.92,1.13,3.86,2.23,5.79,3.34ZM266.39,81.08l10.79,6.23,14.26-8.24-10.8-6.23Zm28.56,0L280.7,89.32A49.26,49.26,0,0,0,285,91.77a22.85,22.85,0,0,0,5.13,1.81c4.4.79,7.91-1.46,11.2-3.9,1.86-1.38,1.65-3.63-.38-5S297,82.27,295,81.08Zm-17.86-10.3c-3.47-2-6.66-3.8-9.81-5.68a1.91,1.91,0,0,0-2.2.22c-2.07,1.21-4.15,2.4-6.22,3.61l-6.74,3.9,10.78,6.24,5.32-3.14-3.46-2-2,.85c-.56-.31-1.07-.55-1.54-.85s-1-.7-1.65-1.16a38.13,38.13,0,0,0,4.3-2.57c1.85-1.46,3.47-1.17,5.14.17.12.1.24.21.43.39l-1,1.29,3.39,1.91Zm10.68,2.15,10.73,6.21L302.07,77c-3.49-2-6.63-3.86-9.82-5.62a2.31,2.31,0,0,0-1.74-.06A20.58,20.58,0,0,0,287.77,72.93ZM259.31,89.2l-10.63-6.14-3.58,2.11c3,1.74,5.83,3.21,8.46,5,1.73,1.15,3.16,1.15,4.7-.14C258.49,89.79,258.74,89.62,259.31,89.2ZM288,105.77l-7.27-4.19c-1.08.89-2.4,1.11-3.17,2.35l6.83,3.94Zm-7.25-8.19,7.2,4.15,3.57-2.12-7.21-4.14ZM255.81,79l-7.21-4.16L245,76.95l7.19,4.14Zm78.26,8.32c-2.3-1.33-4.26-2.52-6.28-3.6a2,2,0,0,0-1.54,0,26.79,26.79,0,0,0-2.77,1.64,56,56,0,0,1,4.84,2.88A3.38,3.38,0,0,0,333,88.1C333.25,87.9,333.5,87.73,334.07,87.31Zm-64,4.07,7.21,4.14,3.6-2.09-7.22-4.17Zm17.69-22.61c-2.06-1.21-3.87-2.19-5.58-3.3a2.29,2.29,0,0,0-3,0c-.53.42-1.13.76-2,1.33,1.9,1.1,3.59,2,5.13,3a2.87,2.87,0,0,0,3.87,0C286.5,69.48,286.93,69.26,287.72,68.77Zm-7.18-12.38L277,58.5a46.22,46.22,0,0,1,4.64,2.76,3.66,3.66,0,0,0,5.1-.11l.86-.67Zm10.94,47.37,7.2,4.15,3.58-2.11-7.19-4.14Zm-21.43-8.37c-1.06.88-2.4,1.08-3.2,2.34l6.87,4,3.57-2.11Zm49.61-8.21c-1.78-1-3.52-1.95-5.15-3a2.65,2.65,0,0,0-3.45,0c-.47.37-1,.68-1.75,1.19a43.32,43.32,0,0,1,4.27,2.54C315.69,89.48,317.57,89.5,319.66,87.18ZM287.78,64.71a44,44,0,0,1,4.64,2.78c1.84,1.43,3.44,1.17,5.09-.18.17-.14.38-.24.88-.56-2.12-1.25-4-2.26-5.75-3.41a2.24,2.24,0,0,0-2.83.06C289.26,63.81,288.65,64.15,287.78,64.71Zm25.06,14.5c2.26,1.31,4.22,2.49,6.23,3.57a2,2,0,0,0,1.53,0,26.43,26.43,0,0,0,2.8-1.67,45.45,45.45,0,0,1-4.64-2.75,3.63,3.63,0,0,0-5.09.14Zm-10.55,1.94c3.53,2.45,3.58,2.45,6.66-.17l-3.33-1.89c-.87.49-1.63.91-2.39,1.35C303,80.6,302.73,80.81,302.29,81.15Zm3.48-6.29c3.36,2.59,3.58,2.58,6.72,0l-3.36-1.93ZM273.42,60.51l-3.35,2c3.4,2.36,3.09,2.88,6.72-.06ZM263,95.48l3.42-2c-3.55-2.52-3.8-2.52-6.67.13Zm64-3.92c-3.65-2.54-4-2.53-6.7.15l3.29,1.84ZM294.9,110.07c-3.32-2.66-4.21-2.63-6.47.1l3.13,1.83ZM269.81,87.41c-3.11-2.61-3.47-2.61-6.67,0l3.37,1.93ZM255.86,83c3.74,2.55,3.83,2.54,6.75-.1L259.33,81Zm-14.29.08,3.39-2c-3.6-2.52-3.68-2.52-6.75.1ZM302,73l3.42-2c-3.47-2.31-3.16-2.85-6.71.13Z"/><path class="cls-1" d="M271.67,28.68c4.36-2.83,8.51-3.07,12.7-.69,7.51,4.26,15,8.61,22.43,12.92q16.5,9.53,33,19.07a13.17,13.17,0,0,1,2.37,1.61,2.78,2.78,0,0,1,0,4.39c-1.78,1.77-2.76,1.89-5,.59L274.1,30.14C273.36,29.71,272.64,29.26,271.67,28.68Z"/><path class="cls-1" d="M254.17,117.08a62.4,62.4,0,0,1-6.9,3.62,11.17,11.17,0,0,1-9.89-1.15Q218,108.3,198.56,97.13c-5.54-3.2-11-6.51-16.63-9.55-4-2.16-4-5.24,0-7.16,1.5-.73,3-2.18,4.43-2.18s3,1.35,4.42,2.18q30.32,17.49,60.63,35C252.12,115.86,252.87,116.32,254.17,117.08ZM224,103.61c-4.57-2.64-8.66-4.94-12.67-7.36a2.66,2.66,0,0,0-3.44,0c-.46.37-1,.68-1.63,1.14.81.52,1.39.92,2,1.27,3.23,1.87,6.57,3.59,9.68,5.65,1.93,1.28,3.45,1.18,5.09-.21A7.71,7.71,0,0,1,224,103.61Z"/><path class="cls-1" d="M277.17,83.11l-3.47-2c2.36-1.36,4.38-2.57,6.44-3.68a1.75,1.75,0,0,1,1.32.13c.78.36,1.5.86,2.63,1.53Z"/><path class="cls-1" d="M288.31,89.19l6.67-3.9L297.49,87C295.34,90.54,291.2,91.57,288.31,89.19Z"/></g></g></svg>